<?xml version="1.0" encoding="utf-8" standalone="no"?>
<!DOCTYPE svg PUBLIC "-//W3C//DTD SVG 1.1//EN"
  "http://www.w3.org/Graphics/SVG/1.1/DTD/svg11.dtd">
<svg xmlns:xlink="http://www.w3.org/1999/xlink" width="447.714219pt" height="228.089187pt" viewBox="0 0 447.714219 228.089187" xmlns="http://www.w3.org/2000/svg" version="1.1">
 <metadata>
  <rdf:RDF xmlns:dc="http://purl.org/dc/elements/1.1/" xmlns:cc="http://creativecommons.org/ns#" xmlns:rdf="http://www.w3.org/1999/02/22-rdf-syntax-ns#">
   <cc:Work>
    <dc:type rdf:resource="http://purl.org/dc/dcmitype/StillImage"/>
    <dc:format>image/svg+xml</dc:format>
    <dc:creator>
     <cc:Agent>
      <dc:title>paper/figures issue #124</dc:title>
     </cc:Agent>
    </dc:creator>
   </cc:Work>
  </rdf:RDF>
 </metadata>
 <defs>
  <style type="text/css">*{stroke-linejoin: round; stroke-linecap: butt}</style>
 </defs>
 <g id="figure_1">
  <g id="patch_1">
   <path d="M 0 228.089187
L 447.714219 228.089187
L 447.714219 0
L 0 0
z
" style="fill: #ffffff"/>
  </g>
  <g id="axes_1">
   <g id="patch_2">
    <path d="M 43.074219 199.692
L 444.834219 199.692
L 444.834219 2.88
L 43.074219 2.88
z
" style="fill: #ffffff"/>
   </g>
   <g id="PolyCollection_1">
    <defs>
     <path id="m53b91a764e" d="M 61.336037 -164.949723
L 61.336037 -61.40144
L 134.38331 -78.849858
L 207.430582 -37.343187
L 280.477855 -61.450937
L 353.525128 -76.854075
L 426.572401 -108.975986
L 426.572401 -199.900202
L 426.572401 -199.900202
L 353.525128 -176.334772
L 280.477855 -145.35898
L 207.430582 -155.852112
L 134.38331 -168.625933
L 61.336037 -164.949723
z
"/>
    </defs>
    <g clip-path="url(#p8282b680e8)">
     <use xlink:href="#m53b91a764e" x="0" y="228.089187" style="fill: #e69f00; fill-opacity: 0.13"/>
    </g>
   </g>
   <g id="PolyCollection_2">
    <defs>
     <path id="m5693c244ba" d="M 61.336037 -194.780605
L 61.336037 -50.081534
L 134.38331 -53.083507
L 207.430582 -79.97611
L 280.477855 -87.874694
L 353.525128 -69.548371
L 426.572401 -85.141611
L 426.572401 -216.263188
L 426.572401 -216.263188
L 353.525128 -187.137831
L 280.477855 -167.682578
L 207.430582 -144.451321
L 134.38331 -160.549962
L 61.336037 -194.780605
z
"/>
    </defs>
    <g clip-path="url(#p8282b680e8)">
     <use xlink:href="#m5693c244ba" x="0" y="228.089187" style="fill: #0072b2; fill-opacity: 0.13"/>
    </g>
   </g>
   <g id="matplotlib.axis_1">
    <g id="xtick_1">
     <g id="line2d_1">
      <path d="M 61.336037 199.692
L 61.336037 2.88
" clip-path="url(#p8282b680e8)" style="fill: none; stroke: #e5e5e5; stroke-width: 0.6; stroke-linecap: square"/>
     </g>
     <g id="line2d_2">
      <defs>
       <path id="m735df52fc4" d="M 0 0
L 0 3.5
" style="stroke: #202124; stroke-width: 0.8"/>
      </defs>
      <g>
       <use xlink:href="#m735df52fc4" x="61.336037" y="199.692" style="fill: #202124; stroke: #202124; stroke-width: 0.8"/>
      </g>
     </g>
     <g id="text_1">
      <text style="fill: #202124; font: 7px 'DejaVu Sans'; text-anchor: middle" x="61.336037" y="212.010906" transform="rotate(-0 61.336037 212.010906)">16</text>
     </g>
    </g>
    <g id="xtick_2">
     <g id="line2d_3">
      <path d="M 134.38331 199.692
L 134.38331 2.88
" clip-path="url(#p8282b680e8)" style="fill: none; stroke: #e5e5e5; stroke-width: 0.6; stroke-linecap: square"/>
     </g>
     <g id="line2d_4">
      <g>
       <use xlink:href="#m735df52fc4" x="134.38331" y="199.692" style="fill: #202124; stroke: #202124; stroke-width: 0.8"/>
      </g>
     </g>
     <g id="text_2">
      <text style="fill: #202124; font: 7px 'DejaVu Sans'; text-anchor: middle" x="134.38331" y="212.010906" transform="rotate(-0 134.38331 212.010906)">32</text>
     </g>
    </g>
    <g id="xtick_3">
     <g id="line2d_5">
      <path d="M 207.430582 199.692
L 207.430582 2.88
" clip-path="url(#p8282b680e8)" style="fill: none; stroke: #e5e5e5; stroke-width: 0.6; stroke-linecap: square"/>
     </g>
     <g id="line2d_6">
      <g>
       <use xlink:href="#m735df52fc4" x="207.430582" y="199.692" style="fill: #202124; stroke: #202124; stroke-width: 0.8"/>
      </g>
     </g>
     <g id="text_3">
      <text style="fill: #202124; font: 7px 'DejaVu Sans'; text-anchor: middle" x="207.430582" y="212.010906" transform="rotate(-0 207.430582 212.010906)">64</text>
     </g>
    </g>
    <g id="xtick_4">
     <g id="line2d_7">
      <path d="M 280.477855 199.692
L 280.477855 2.88
" clip-path="url(#p8282b680e8)" style="fill: none; stroke: #e5e5e5; stroke-width: 0.6; stroke-linecap: square"/>
     </g>
     <g id="line2d_8">
      <g>
       <use xlink:href="#m735df52fc4" x="280.477855" y="199.692" style="fill: #202124; stroke: #202124; stroke-width: 0.8"/>
      </g>
     </g>
     <g id="text_4">
      <text style="fill: #202124; font: 7px 'DejaVu Sans'; text-anchor: middle" x="280.477855" y="212.010906" transform="rotate(-0 280.477855 212.010906)">128</text>
     </g>
    </g>
    <g id="xtick_5">
     <g id="line2d_9">
      <path d="M 353.525128 199.692
L 353.525128 2.88
" clip-path="url(#p8282b680e8)" style="fill: none; stroke: #e5e5e5; stroke-width: 0.6; stroke-linecap: square"/>
     </g>
     <g id="line2d_10">
      <g>
       <use xlink:href="#m735df52fc4" x="353.525128" y="199.692" style="fill: #202124; stroke: #202124; stroke-width: 0.8"/>
      </g>
     </g>
     <g id="text_5">
      <text style="fill: #202124; font: 7px 'DejaVu Sans'; text-anchor: middle" x="353.525128" y="212.010906" transform="rotate(-0 353.525128 212.010906)">256</text>
     </g>
    </g>
    <g id="xtick_6">
     <g id="line2d_11">
      <path d="M 426.572401 199.692
L 426.572401 2.88
" clip-path="url(#p8282b680e8)" style="fill: none; stroke: #e5e5e5; stroke-width: 0.6; stroke-linecap: square"/>
     </g>
     <g id="line2d_12">
      <g>
       <use xlink:href="#m735df52fc4" x="426.572401" y="199.692" style="fill: #202124; stroke: #202124; stroke-width: 0.8"/>
      </g>
     </g>
     <g id="text_6">
      <text style="fill: #202124; font: 7px 'DejaVu Sans'; text-anchor: middle" x="426.572401" y="212.010906" transform="rotate(-0 426.572401 212.010906)">512</text>
     </g>
    </g>
    <g id="text_7">
     <text style="fill: #202124; font: 8px 'DejaVu Sans'; text-anchor: middle" x="243.954219" y="223.545437" transform="rotate(-0 243.954219 223.545437)">decode horizon checkpoint</text>
    </g>
   </g>
   <g id="matplotlib.axis_2">
    <g id="ytick_1">
     <g id="line2d_13">
      <path d="M 43.074219 166.919194
L 444.834219 166.919194
" clip-path="url(#p8282b680e8)" style="fill: none; stroke: #e5e5e5; stroke-width: 0.6; stroke-linecap: square"/>
     </g>
     <g id="line2d_14">
      <defs>
       <path id="m344c76e303" d="M 0 0
L -3.5 0
" style="stroke: #202124; stroke-width: 0.8"/>
      </defs>
      <g>
       <use xlink:href="#m344c76e303" x="43.074219" y="166.919194" style="fill: #202124; stroke: #202124; stroke-width: 0.8"/>
      </g>
     </g>
     <g id="text_8">
      <text style="fill: #202124; font: 7px 'DejaVu Sans'; text-anchor: end" x="36.074219" y="169.578647" transform="rotate(-0 36.074219 169.578647)">−0.01</text>
     </g>
    </g>
    <g id="ytick_2">
     <g id="line2d_15">
      <path d="M 43.074219 124.674521
L 444.834219 124.674521
" clip-path="url(#p8282b680e8)" style="fill: none; stroke: #e5e5e5; stroke-width: 0.6; stroke-linecap: square"/>
     </g>
     <g id="line2d_16">
      <g>
       <use xlink:href="#m344c76e303" x="43.074219" y="124.674521" style="fill: #202124; stroke: #202124; stroke-width: 0.8"/>
      </g>
     </g>
     <g id="text_9">
      <text style="fill: #202124; font: 7px 'DejaVu Sans'; text-anchor: end" x="36.074219" y="127.333974" transform="rotate(-0 36.074219 127.333974)">0.00</text>
     </g>
    </g>
    <g id="ytick_3">
     <g id="line2d_17">
      <path d="M 43.074219 82.429848
L 444.834219 82.429848
" clip-path="url(#p8282b680e8)" style="fill: none; stroke: #e5e5e5; stroke-width: 0.6; stroke-linecap: square"/>
     </g>
     <g id="line2d_18">
      <g>
       <use xlink:href="#m344c76e303" x="43.074219" y="82.429848" style="fill: #202124; stroke: #202124; stroke-width: 0.8"/>
      </g>
     </g>
     <g id="text_10">
      <text style="fill: #202124; font: 7px 'DejaVu Sans'; text-anchor: end" x="36.074219" y="85.089302" transform="rotate(-0 36.074219 85.089302)">0.01</text>
     </g>
    </g>
    <g id="ytick_4">
     <g id="line2d_19">
      <path d="M 43.074219 40.185176
L 444.834219 40.185176
" clip-path="url(#p8282b680e8)" style="fill: none; stroke: #e5e5e5; stroke-width: 0.6; stroke-linecap: square"/>
     </g>
     <g id="line2d_20">
      <g>
       <use xlink:href="#m344c76e303" x="43.074219" y="40.185176" style="fill: #202124; stroke: #202124; stroke-width: 0.8"/>
      </g>
     </g>
     <g id="text_11">
      <text style="fill: #202124; font: 7px 'DejaVu Sans'; text-anchor: end" x="36.074219" y="42.844629" transform="rotate(-0 36.074219 42.844629)">0.02</text>
     </g>
    </g>
    <g id="text_12">
     <text style="fill: #202124; font: 8px 'DejaVu Sans'; text-anchor: middle" x="8.95875" y="101.286" transform="rotate(-90 8.95875 101.286)">cumulative mean ΔNLL vs EXACT</text>
    </g>
   </g>
   <g id="line2d_21">
    <path d="M 61.336037 141.9562
L 134.38331 146.570285
L 207.430582 130.594185
L 280.477855 121.597745
L 353.525128 69.550765
L 426.572401 73.270188
" clip-path="url(#p8282b680e8)" style="fill: none; stroke: #e69f00; stroke-opacity: 0.16; stroke-width: 0.7; stroke-linecap: square"/>
   </g>
   <g id="line2d_22">
    <path d="M 61.336037 113.009136
L 134.38331 107.162008
L 207.430582 190.746
L 280.477855 166.638251
L 353.525128 142.241954
L 426.572401 82.624496
" clip-path="url(#p8282b680e8)" style="fill: none; stroke: #e69f00; stroke-opacity: 0.16; stroke-width: 0.7; stroke-linecap: square"/>
   </g>
   <g id="line2d_23">
    <path d="M 61.336037 134.766392
L 134.38331 135.098775
L 207.430582 131.780179
L 280.477855 129.854276
L 353.525128 151.235112
L 426.572401 116.913163
" clip-path="url(#p8282b680e8)" style="fill: none; stroke: #e69f00; stroke-opacity: 0.16; stroke-width: 0.7; stroke-linecap: square"/>
   </g>
   <g id="line2d_24">
    <path d="M 61.336037 63.139464
L 134.38331 59.463255
L 207.430582 72.237076
L 280.477855 82.730207
L 353.525128 51.754415
L 426.572401 28.188985
" clip-path="url(#p8282b680e8)" style="fill: none; stroke: #e69f00; stroke-opacity: 0.16; stroke-width: 0.7; stroke-linecap: square"/>
   </g>
   <g id="line2d_25">
    <path d="M 61.336037 143.770226
L 134.38331 141.151186
L 207.430582 140.424617
L 280.477855 132.983297
L 353.525128 146.201883
L 426.572401 114.835214
" clip-path="url(#p8282b680e8)" style="fill: none; stroke: #e69f00; stroke-opacity: 0.16; stroke-width: 0.7; stroke-linecap: square"/>
   </g>
   <g id="line2d_26">
    <path d="M 61.336037 89.335721
L 134.38331 102.171821
L 207.430582 124.211387
L 280.477855 111.41109
L 353.525128 97.479437
L 426.572401 48.2402
" clip-path="url(#p8282b680e8)" style="fill: none; stroke: #e69f00; stroke-opacity: 0.16; stroke-width: 0.7; stroke-linecap: square"/>
   </g>
   <g id="line2d_27">
    <path d="M 61.336037 93.407141
L 134.38331 111.033254
L 207.430582 108.161884
L 280.477855 94.752122
L 353.525128 108.137358
L 426.572401 80.204059
" clip-path="url(#p8282b680e8)" style="fill: none; stroke: #e69f00; stroke-opacity: 0.16; stroke-width: 0.7; stroke-linecap: square"/>
   </g>
   <g id="line2d_28">
    <path d="M 61.336037 147.569762
L 134.38331 140.18223
L 207.430582 133.879968
L 280.477855 99.476419
L 353.525128 88.340045
L 426.572401 52.777456
" clip-path="url(#p8282b680e8)" style="fill: none; stroke: #e69f00; stroke-opacity: 0.16; stroke-width: 0.7; stroke-linecap: square"/>
   </g>
   <g id="line2d_29">
    <path d="M 61.336037 124.342067
L 134.38331 132.923199
L 207.430582 140.963096
L 280.477855 146.73866
L 353.525128 108.63872
L 426.572401 68.900804
" clip-path="url(#p8282b680e8)" style="fill: none; stroke: #e69f00; stroke-opacity: 0.16; stroke-width: 0.7; stroke-linecap: square"/>
   </g>
   <g id="line2d_30">
    <path d="M 61.336037 75.820926
L 134.38331 64.422632
L 207.430582 99.961731
L 280.477855 106.920564
L 353.525128 77.987998
L 426.572401 63.72362
" clip-path="url(#p8282b680e8)" style="fill: none; stroke: #e69f00; stroke-opacity: 0.16; stroke-width: 0.7; stroke-linecap: square"/>
   </g>
   <g id="line2d_31">
    <path d="M 61.336037 122.465559
L 134.38331 125.242786
L 207.430582 124.613873
L 280.477855 113.653032
L 353.525128 106.497895
L 426.572401 75.558016
" clip-path="url(#p8282b680e8)" style="fill: none; stroke: #e69f00; stroke-opacity: 0.16; stroke-width: 0.7; stroke-linecap: square"/>
   </g>
   <g id="line2d_32">
    <path d="M 61.336037 116.611833
L 134.38331 110.840201
L 207.430582 100.131054
L 280.477855 109.83501
L 353.525128 114.292592
L 426.572401 119.113201
" clip-path="url(#p8282b680e8)" style="fill: none; stroke: #e69f00; stroke-opacity: 0.16; stroke-width: 0.7; stroke-linecap: square"/>
   </g>
   <g id="line2d_33">
    <path d="M 61.336037 153.72243
L 134.38331 140.660045
L 207.430582 135.890606
L 280.477855 131.977478
L 353.525128 53.940579
L 426.572401 73.176894
" clip-path="url(#p8282b680e8)" style="fill: none; stroke: #e69f00; stroke-opacity: 0.16; stroke-width: 0.7; stroke-linecap: square"/>
   </g>
   <g id="line2d_34">
    <path d="M 61.336037 129.635972
L 134.38331 144.870933
L 207.430582 134.807937
L 280.477855 135.523051
L 353.525128 108.359035
L 426.572401 86.214617
" clip-path="url(#p8282b680e8)" style="fill: none; stroke: #e69f00; stroke-opacity: 0.16; stroke-width: 0.7; stroke-linecap: square"/>
   </g>
   <g id="line2d_35">
    <path d="M 61.336037 166.687747
L 134.38331 149.239329
L 207.430582 119.487554
L 280.477855 125.750659
L 353.525128 69.588169
L 426.572401 93.2825
" clip-path="url(#p8282b680e8)" style="fill: none; stroke: #e69f00; stroke-opacity: 0.16; stroke-width: 0.7; stroke-linecap: square"/>
   </g>
   <g id="line2d_36">
    <path d="M 61.336037 109.689928
L 134.38331 107.721182
L 207.430582 98.703486
L 280.477855 118.055856
L 353.525128 53.041699
L 426.572401 78.300763
" clip-path="url(#p8282b680e8)" style="fill: none; stroke: #e69f00; stroke-opacity: 0.16; stroke-width: 0.7; stroke-linecap: square"/>
   </g>
   <g id="line2d_37">
    <path d="M 61.336037 120.370657
L 134.38331 119.92207
L 207.430582 124.162165
L 280.477855 120.493607
L 353.525128 96.705478
L 426.572401 78.457761
" clip-path="url(#p8282b680e8)" style="fill: none; stroke: #e69f00; stroke-width: 1.5; stroke-linecap: square"/>
    <defs>
     <path id="mf7188b9b90" d="M -2 2
L 2 2
L 2 -2
L -2 -2
z
" style="stroke: #e69f00; stroke-linejoin: miter"/>
    </defs>
    <g clip-path="url(#p8282b680e8)">
     <use xlink:href="#mf7188b9b90" x="61.336037" y="120.370657" style="fill: #e69f00; stroke: #e69f00; stroke-linejoin: miter"/>
     <use xlink:href="#mf7188b9b90" x="134.38331" y="119.92207" style="fill: #e69f00; stroke: #e69f00; stroke-linejoin: miter"/>
     <use xlink:href="#mf7188b9b90" x="207.430582" y="124.162165" style="fill: #e69f00; stroke: #e69f00; stroke-linejoin: miter"/>
     <use xlink:href="#mf7188b9b90" x="280.477855" y="120.493607" style="fill: #e69f00; stroke: #e69f00; stroke-linejoin: miter"/>
     <use xlink:href="#mf7188b9b90" x="353.525128" y="96.705478" style="fill: #e69f00; stroke: #e69f00; stroke-linejoin: miter"/>
     <use xlink:href="#mf7188b9b90" x="426.572401" y="78.457761" style="fill: #e69f00; stroke: #e69f00; stroke-linejoin: miter"/>
    </g>
   </g>
   <g id="line2d_38">
    <path d="M 61.336037 153.584838
L 134.38331 120.052438
L 207.430582 112.442077
L 280.477855 107.047078
L 353.525128 48.455102
L 426.572401 61.985018
" clip-path="url(#p8282b680e8)" style="fill: none; stroke: #0072b2; stroke-opacity: 0.16; stroke-width: 0.7; stroke-linecap: square"/>
   </g>
   <g id="line2d_39">
    <path d="M 61.336037 98.9235
L 134.38331 83.714268
L 207.430582 148.113077
L 280.477855 140.214494
L 353.525128 131.069381
L 426.572401 69.688125
" clip-path="url(#p8282b680e8)" style="fill: none; stroke: #0072b2; stroke-opacity: 0.16; stroke-width: 0.7; stroke-linecap: square"/>
   </g>
   <g id="line2d_40">
    <path d="M 61.336037 87.704525
L 134.38331 119.109753
L 207.430582 130.685793
L 280.477855 129.353072
L 353.525128 138.480018
L 426.572401 114.039177
" clip-path="url(#p8282b680e8)" style="fill: none; stroke: #0072b2; stroke-opacity: 0.16; stroke-width: 0.7; stroke-linecap: square"/>
   </g>
   <g id="line2d_41">
    <path d="M 61.336037 92.947375
L 134.38331 95.233105
L 207.430582 98.448156
L 280.477855 70.592755
L 353.525128 40.951356
L 426.572401 11.826
" clip-path="url(#p8282b680e8)" style="fill: none; stroke: #0072b2; stroke-opacity: 0.16; stroke-width: 0.7; stroke-linecap: square"/>
   </g>
   <g id="line2d_42">
    <path d="M 61.336037 145.962885
L 134.38331 141.553716
L 207.430582 145.376537
L 280.477855 133.093292
L 353.525128 158.540816
L 426.572401 142.947577
" clip-path="url(#p8282b680e8)" style="fill: none; stroke: #0072b2; stroke-opacity: 0.16; stroke-width: 0.7; stroke-linecap: square"/>
   </g>
   <g id="line2d_43">
    <path d="M 61.336037 64.510525
L 134.38331 67.539225
L 207.430582 83.637867
L 280.477855 60.406609
L 353.525128 89.441849
L 426.572401 53.556289
" clip-path="url(#p8282b680e8)" style="fill: none; stroke: #0072b2; stroke-opacity: 0.16; stroke-width: 0.7; stroke-linecap: square"/>
   </g>
   <g id="line2d_44">
    <path d="M 61.336037 75.988895
L 134.38331 115.842887
L 207.430582 94.66058
L 280.477855 78.447434
L 353.525128 102.124694
L 426.572401 75.520258
" clip-path="url(#p8282b680e8)" style="fill: none; stroke: #0072b2; stroke-opacity: 0.16; stroke-width: 0.7; stroke-linecap: square"/>
   </g>
   <g id="line2d_45">
    <path d="M 61.336037 136.303265
L 134.38331 126.909517
L 207.430582 125.321071
L 280.477855 105.501713
L 353.525128 90.879533
L 426.572401 93.75737
" clip-path="url(#p8282b680e8)" style="fill: none; stroke: #0072b2; stroke-opacity: 0.16; stroke-width: 0.7; stroke-linecap: square"/>
   </g>
   <g id="line2d_46">
    <path d="M 61.336037 131.29855
L 134.38331 175.005681
L 207.430582 146.695997
L 280.477855 126.101865
L 353.525128 110.996645
L 426.572401 71.370916
" clip-path="url(#p8282b680e8)" style="fill: none; stroke: #0072b2; stroke-opacity: 0.16; stroke-width: 0.7; stroke-linecap: square"/>
   </g>
   <g id="line2d_47">
    <path d="M 61.336037 134.339643
L 134.38331 129.162094
L 207.430582 127.190198
L 280.477855 116.209274
L 353.525128 105.097897
L 426.572401 41.727041
" clip-path="url(#p8282b680e8)" style="fill: none; stroke: #0072b2; stroke-opacity: 0.16; stroke-width: 0.7; stroke-linecap: square"/>
   </g>
   <g id="line2d_48">
    <path d="M 61.336037 132.597024
L 134.38331 125.64729
L 207.430582 126.207302
L 280.477855 112.393928
L 353.525128 86.675122
L 426.572401 74.025094
" clip-path="url(#p8282b680e8)" style="fill: none; stroke: #0072b2; stroke-opacity: 0.16; stroke-width: 0.7; stroke-linecap: square"/>
   </g>
   <g id="line2d_49">
    <path d="M 61.336037 33.308582
L 134.38331 77.34517
L 207.430582 97.687592
L 280.477855 134.910259
L 353.525128 107.712003
L 426.572401 103.991613
" clip-path="url(#p8282b680e8)" style="fill: none; stroke: #0072b2; stroke-opacity: 0.16; stroke-width: 0.7; stroke-linecap: square"/>
   </g>
   <g id="line2d_50">
    <path d="M 61.336037 151.099788
L 134.38331 138.324324
L 207.430582 131.222996
L 280.477855 112.403392
L 353.525128 66.187399
L 426.572401 44.621057
" clip-path="url(#p8282b680e8)" style="fill: none; stroke: #0072b2; stroke-opacity: 0.16; stroke-width: 0.7; stroke-linecap: square"/>
   </g>
   <g id="line2d_51">
    <path d="M 61.336037 106.592001
L 134.38331 126.562219
L 207.430582 128.541955
L 280.477855 123.986427
L 353.525128 108.950719
L 426.572401 72.953926
" clip-path="url(#p8282b680e8)" style="fill: none; stroke: #0072b2; stroke-opacity: 0.16; stroke-width: 0.7; stroke-linecap: square"/>
   </g>
   <g id="line2d_52">
    <path d="M 61.336037 178.007654
L 134.38331 163.756834
L 207.430582 134.325563
L 280.477855 115.338613
L 353.525128 51.54793
L 426.572401 56.935342
" clip-path="url(#p8282b680e8)" style="fill: none; stroke: #0072b2; stroke-opacity: 0.16; stroke-width: 0.7; stroke-linecap: square"/>
   </g>
   <g id="line2d_53">
    <path d="M 61.336037 163.748504
L 134.38331 124.490765
L 207.430582 118.669416
L 280.477855 135.697276
L 353.525128 90.126209
L 426.572401 92.689376
" clip-path="url(#p8282b680e8)" style="fill: none; stroke: #0072b2; stroke-opacity: 0.16; stroke-width: 0.7; stroke-linecap: square"/>
   </g>
   <g id="line2d_54">
    <path d="M 61.336037 117.932347
L 134.38331 120.64058
L 207.430582 121.826636
L 280.477855 112.606093
L 353.525128 95.452292
L 426.572401 73.852136
" clip-path="url(#p8282b680e8)" style="fill: none; stroke: #0072b2; stroke-width: 1.5; stroke-linecap: square"/>
    <defs>
     <path id="mf4f8993c01" d="M 0 2
C 0.530406 2 1.03916 1.789267 1.414214 1.414214
C 1.789267 1.03916 2 0.530406 2 0
C 2 -0.530406 1.789267 -1.03916 1.414214 -1.414214
C 1.03916 -1.789267 0.530406 -2 0 -2
C -0.530406 -2 -1.03916 -1.789267 -1.414214 -1.414214
C -1.789267 -1.03916 -2 -0.530406 -2 0
C -2 0.530406 -1.789267 1.03916 -1.414214 1.414214
C -1.03916 1.789267 -0.530406 2 0 2
z
" style="stroke: #0072b2"/>
    </defs>
    <g clip-path="url(#p8282b680e8)">
     <use xlink:href="#mf4f8993c01" x="61.336037" y="117.932347" style="fill: #0072b2; stroke: #0072b2"/>
     <use xlink:href="#mf4f8993c01" x="134.38331" y="120.64058" style="fill: #0072b2; stroke: #0072b2"/>
     <use xlink:href="#mf4f8993c01" x="207.430582" y="121.826636" style="fill: #0072b2; stroke: #0072b2"/>
     <use xlink:href="#mf4f8993c01" x="280.477855" y="112.606093" style="fill: #0072b2; stroke: #0072b2"/>
     <use xlink:href="#mf4f8993c01" x="353.525128" y="95.452292" style="fill: #0072b2; stroke: #0072b2"/>
     <use xlink:href="#mf4f8993c01" x="426.572401" y="73.852136" style="fill: #0072b2; stroke: #0072b2"/>
    </g>
   </g>
   <g id="line2d_55">
    <path d="M 43.074219 124.674521
L 444.834219 124.674521
" clip-path="url(#p8282b680e8)" style="fill: none; stroke: #333333; stroke-width: 0.8; stroke-linecap: square"/>
   </g>
   <g id="patch_3">
    <path d="M 43.074219 199.692
L 43.074219 2.88
" style="fill: none; stroke: #202124; stroke-width: 0.8; stroke-linejoin: miter; stroke-linecap: square"/>
   </g>
   <g id="patch_4">
    <path d="M 43.074219 199.692
L 444.834219 199.692
" style="fill: none; stroke: #202124; stroke-width: 0.8; stroke-linejoin: miter; stroke-linecap: square"/>
   </g>
   <g id="text_13">
    <text style="fill: #202124; font: 7px 'DejaVu Sans'" transform="translate(299.2624 174.492114)">S2_P50 terminal prompt mean = 0.0120</text>
    <text style="fill: #202124; font: 7px 'DejaVu Sans'" transform="translate(271.2624 182.52527)">95% prompt-bootstrap interval [0.0084, 0.0154]</text>
    <text style="fill: #202124; font: 7px 'DejaVu Sans'" transform="translate(213.395369 190.363739)">mean with observed prompt min–max envelope; n = 16 prompts</text>
   </g>
   <g id="legend_1">
    <g id="line2d_56">
     <path d="M 49.374219 12.048906
L 56.374219 12.048906
L 63.374219 12.048906
" style="fill: none; stroke: #e69f00; stroke-width: 1.5; stroke-linecap: square"/>
     <g>
      <use xlink:href="#mf7188b9b90" x="56.374219" y="12.048906" style="fill: #e69f00; stroke: #e69f00; stroke-linejoin: miter"/>
     </g>
    </g>
    <g id="text_14">
     <text style="fill: #202124; font: 7px 'DejaVu Sans'; text-anchor: start" x="68.974219" y="14.498906" transform="rotate(-0 68.974219 14.498906)">KNEE mean</text>
    </g>
    <g id="line2d_57">
     <path d="M 123.724063 12.048906
L 130.724063 12.048906
L 137.724063 12.048906
" style="fill: none; stroke: #0072b2; stroke-width: 1.5; stroke-linecap: square"/>
     <g>
      <use xlink:href="#mf4f8993c01" x="130.724063" y="12.048906" style="fill: #0072b2; stroke: #0072b2"/>
     </g>
    </g>
    <g id="text_15">
     <text style="fill: #202124; font: 7px 'DejaVu Sans'; text-anchor: start" x="143.324063" y="14.498906" transform="rotate(-0 143.324063 14.498906)">S2_P50 mean</text>
    </g>
   </g>
   <g id="text_16">
    <g id="patch_5">
     <path d="M 361.377619 12.70712
L 440.816619 12.70712
Q 442.416619 12.70712 442.416619 11.10712
L 442.416619 4.84812
Q 442.416619 3.24812 440.816619 3.24812
L 361.377619 3.24812
Q 359.777619 3.24812 359.777619 4.84812
L 359.777619 11.10712
Q 359.777619 12.70712 361.377619 12.70712
z
" style="fill: #ffffff; stroke: #777777; stroke-width: 0.7; stroke-linejoin: miter"/>
    </g>
    <text style="fill: #202124; font: 6.4px 'DejaVu Sans'; text-anchor: end" x="440.816619" y="9.59812" transform="rotate(-0 440.816619 9.59812)">DIRECT_FIXED_CONTEXT</text>
   </g>
  </g>
 </g>
 <defs>
  <clipPath id="p8282b680e8">
   <rect x="43.074219" y="2.88" width="401.76" height="196.812"/>
  </clipPath>
 </defs>
</svg>
