<?xml version="1.0" encoding="utf-8" standalone="no"?>
<!DOCTYPE svg PUBLIC "-//W3C//DTD SVG 1.1//EN"
  "http://www.w3.org/Graphics/SVG/1.1/DTD/svg11.dtd">
<svg xmlns:xlink="http://www.w3.org/1999/xlink" width="409.389956pt" height="202.572pt" viewBox="0 0 409.389956 202.572" xmlns="http://www.w3.org/2000/svg" version="1.1">
 <metadata>
  <rdf:RDF xmlns:dc="http://purl.org/dc/elements/1.1/" xmlns:cc="http://creativecommons.org/ns#" xmlns:rdf="http://www.w3.org/1999/02/22-rdf-syntax-ns#">
   <cc:Work>
    <dc:type rdf:resource="http://purl.org/dc/dcmitype/StillImage"/>
    <dc:format>image/svg+xml</dc:format>
    <dc:creator>
     <cc:Agent>
      <dc:title>paper/figures issue #124</dc:title>
     </cc:Agent>
    </dc:creator>
   </cc:Work>
  </rdf:RDF>
 </metadata>
 <defs>
  <style type="text/css">*{stroke-linejoin: round; stroke-linecap: butt}</style>
 </defs>
 <g id="figure_1">
  <g id="patch_1">
   <path d="M 0 202.572
L 409.389956 202.572
L 409.389956 0
L 0 0
z
" style="fill: #ffffff"/>
  </g>
  <g id="axes_1">
   <g id="patch_2">
    <path d="M 12.12048 68.81202
L 65.95632 68.81202
Q 73.188 68.81202 73.188 65.269404
L 73.188 32.992236
Q 73.188 29.44962 65.95632 29.44962
L 12.12048 29.44962
Q 4.8888 29.44962 4.8888 32.992236
L 4.8888 65.269404
Q 4.8888 68.81202 12.12048 68.81202
z
" clip-path="url(#pdc3da02770)" style="fill: #ddebf7; stroke: #0072b2; stroke-linejoin: miter"/>
   </g>
   <g id="patch_3">
    <path d="M 86.44608 68.81202
L 144.29952 68.81202
Q 151.5312 68.81202 151.5312 65.269404
L 151.5312 32.992236
Q 151.5312 29.44962 144.29952 29.44962
L 86.44608 29.44962
Q 79.2144 29.44962 79.2144 32.992236
L 79.2144 65.269404
Q 79.2144 68.81202 86.44608 68.81202
z
" clip-path="url(#pdc3da02770)" style="fill: #ddebf7; stroke: #0072b2; stroke-linejoin: miter"/>
   </g>
   <g id="patch_4">
    <path d="M 164.78928 62.90766
L 214.60752 62.90766
Q 221.8392 62.90766 221.8392 59.365044
L 221.8392 38.896596
Q 221.8392 35.35398 214.60752 35.35398
L 164.78928 35.35398
Q 157.5576 35.35398 157.5576 38.896596
L 157.5576 59.365044
Q 157.5576 62.90766 164.78928 62.90766
z
" clip-path="url(#pdc3da02770)" style="fill: #ffffff; stroke: #0072b2; stroke-linejoin: miter"/>
   </g>
   <g id="patch_5">
    <path d="M 164.78928 98.33382
L 214.60752 98.33382
Q 221.8392 98.33382 221.8392 94.791204
L 221.8392 74.322756
Q 221.8392 70.78014 214.60752 70.78014
L 164.78928 70.78014
Q 157.5576 70.78014 157.5576 74.322756
L 157.5576 94.791204
Q 157.5576 98.33382 164.78928 98.33382
z
" clip-path="url(#pdc3da02770)" style="fill: #ffffff; stroke: #0072b2; stroke-linejoin: miter"/>
   </g>
   <g id="patch_6">
    <path d="M 84.43728 127.85562
L 146.30832 127.85562
Q 153.54 127.85562 153.54 124.313004
L 153.54 99.908316
Q 153.54 96.3657 146.30832 96.3657
L 84.43728 96.3657
Q 77.2056 96.3657 77.2056 99.908316
L 77.2056 124.313004
Q 77.2056 127.85562 84.43728 127.85562
z
" clip-path="url(#pdc3da02770)" style="fill: #ddf3ea; stroke: #009e73; stroke-linejoin: miter"/>
   </g>
   <g id="patch_7">
    <path d="M 241.12368 96.3657
L 319.06512 96.3657
Q 326.2968 96.3657 326.2968 92.823084
L 326.2968 32.992236
Q 326.2968 29.44962 319.06512 29.44962
L 241.12368 29.44962
Q 233.892 29.44962 233.892 32.992236
L 233.892 92.823084
Q 233.892 96.3657 241.12368 96.3657
z
" clip-path="url(#pdc3da02770)" style="fill: #fff0cc; stroke: #e69f00; stroke-linejoin: miter"/>
   </g>
   <g id="patch_8">
    <path d="M 337.54608 80.62074
L 395.39952 80.62074
Q 402.6312 80.62074 402.6312 77.078124
L 402.6312 44.800956
Q 402.6312 41.25834 395.39952 41.25834
L 337.54608 41.25834
Q 330.3144 41.25834 330.3144 44.800956
L 330.3144 77.078124
Q 330.3144 80.62074 337.54608 80.62074
z
" clip-path="url(#pdc3da02770)" style="fill: #fff0cc; stroke: #e69f00; stroke-linejoin: miter"/>
   </g>
   <g id="patch_9">
    <path d="M 229.07088 167.21802
L 351.20592 167.21802
Q 358.4376 167.21802 358.4376 163.675404
L 358.4376 133.366356
Q 358.4376 129.82374 351.20592 129.82374
L 229.07088 129.82374
Q 221.8392 129.82374 221.8392 133.366356
L 221.8392 163.675404
Q 221.8392 167.21802 229.07088 167.21802
z
" clip-path="url(#pdc3da02770)" style="fill: #ddebf7; stroke: #0072b2; stroke-linejoin: miter"/>
   </g>
   <g id="text_1">
    <text style="fill: #202124; font: 8px 'DejaVu Sans'" transform="translate(15.9284 46.859195)">ordinary K3</text>
    <text style="fill: #202124; font: 8px 'DejaVu Sans'" transform="translate(8.61215 55.817445)">probabilities  pᵢ</text>
   </g>
   <g id="text_2">
    <text style="fill: #202124; font: 8px 'DejaVu Sans'" transform="translate(85.37655 46.859195)">selection score</text>
    <text style="fill: #202124; font: 8px 'DejaVu Sans'" transform="translate(86.125925 55.817445)">pᵢ + correction</text>
   </g>
   <g id="text_3">
    <text style="fill: #202124; font: 8px 'DejaVu Sans'" transform="translate(164.361525 46.859195)">exact top-16</text>
    <text style="fill: #202124; font: 8px 'DejaVu Sans'" transform="translate(185.3584 55.817445)">A₀</text>
   </g>
   <g id="text_4">
    <text style="fill: #202124; font: 8px 'DejaVu Sans'" transform="translate(155.482775 82.285355)">candidate top-32</text>
    <text style="fill: #202124; font: 8px 'DejaVu Sans'" transform="translate(186.905275 91.243605)">C</text>
   </g>
   <g id="patch_10">
    <path d="M 69.161082 49.13082
Q 76.201847 49.13082 82.124578 49.13082
" style="fill: none; stroke: #0072b2; stroke-linecap: round"/>
    <path d="M 78.924578 47.53082
L 82.124578 49.13082
L 78.924578 50.73082
z
" style="fill: #0072b2; stroke: #0072b2; stroke-linecap: round"/>
   </g>
   <g id="patch_11">
    <path d="M 147.504282 49.13082
Q 154.545047 49.13082 160.467778 49.13082
" style="fill: none; stroke: #0072b2; stroke-linecap: round"/>
    <path d="M 157.267778 47.53082
L 160.467778 49.13082
L 157.267778 50.73082
z
" style="fill: #0072b2; stroke: #0072b2; stroke-linecap: round"/>
   </g>
   <g id="patch_12">
    <path d="M 146.54868 56.739747
Q 154.543344 69.794355 161.954114 81.895514
" style="fill: none; stroke: #0072b2; stroke-linecap: round"/>
    <path d="M 161.647377 78.330978
L 161.954114 81.895514
L 158.918443 80.002182
z
" style="fill: #0072b2; stroke: #0072b2; stroke-linecap: round"/>
   </g>
   <g id="text_5">
    <text style="fill: #202124; font: 8px 'DejaVu Sans'" transform="translate(77.742175 109.839035)">current residency /</text>
    <text style="fill: #202124; font: 8px 'DejaVu Sans'" transform="translate(92.9878 118.797285)">service tier</text>
   </g>
   <g id="text_6">
    <text style="fill: #202124; font: 7.4px 'DejaVu Sans'" transform="translate(235.575306 40.090454)">deterministic swap gate</text>
    <text style="fill: #202124; font: 7.4px 'DejaVu Sans'" transform="translate(280.0944 48.376835)"/>
    <text style="fill: #202124; font: 7.4px 'DejaVu Sans'" transform="translate(244.581916 56.663216)">1. candidate is in C</text>
    <text style="fill: #202124; font: 7.4px 'DejaVu Sans'" transform="translate(236.429775 64.949597)">2. service tier improves</text>
    <text style="fill: #202124; font: 7.4px 'DejaVu Sans'" transform="translate(235.052681 73.235979)">3. per-swap score regret</text>
    <text style="fill: #202124; font: 7.4px 'DejaVu Sans'" transform="translate(251.045353 81.52236)">   ≤ hard bound</text>
    <text style="fill: #202124; font: 7.4px 'DejaVu Sans'" transform="translate(244.581916 89.808741)">4. stable tie breaks</text>
   </g>
   <g id="patch_13">
    <path d="M 217.810811 49.13082
Q 227.864744 49.13082 236.800644 49.13082
" style="fill: none; stroke: #202124; stroke-linecap: round"/>
    <path d="M 233.600644 47.53082
L 236.800644 49.13082
L 233.600644 50.73082
z
" style="fill: #202124; stroke: #202124; stroke-linecap: round"/>
   </g>
   <g id="patch_14">
    <path d="M 217.687222 83.868306
Q 227.865205 80.128855 236.993742 76.774976
" style="fill: none; stroke: #202124; stroke-linecap: round"/>
    <path d="M 233.438271 76.376705
L 236.993742 76.774976
L 234.541843 79.380391
z
" style="fill: #202124; stroke: #202124; stroke-linecap: round"/>
   </g>
   <g id="patch_15">
    <path d="M 149.41144 111.484121
Q 193.716155 96.857679 236.959194 82.581731
" style="fill: none; stroke-dasharray: 3.7,1.6; stroke-dashoffset: 0; stroke: #009e73; stroke-linecap: round"/>
    <path d="M 233.418917 82.065557
L 236.959194 82.581731
L 234.422089 85.104249
z
" style="fill: #009e73; stroke-dasharray: 3.7,1.6; stroke-dashoffset: 0; stroke: #009e73; stroke-linecap: round"/>
   </g>
   <g id="text_7">
    <text style="fill: #009e73; font: 6.8px 'DejaVu Sans'; text-anchor: middle" x="183.672" y="99.31788" transform="rotate(-0 183.672 99.31788)">read-only state</text>
   </g>
   <g id="text_8">
    <text style="fill: #202124; font: 7.8px 'DejaVu Sans'" transform="translate(326.435644 54.24909)">final membership A*</text>
    <text style="fill: #202124; font: 7.8px 'DejaVu Sans'" transform="translate(330.257034 62.983384)">exactly 16 experts</text>
    <text style="fill: #202124; font: 7.8px 'DejaVu Sans'" transform="translate(335.678644 71.717677)">max_swaps = 2</text>
   </g>
   <g id="patch_16">
    <path d="M 322.251736 62.665008
Q 328.303911 61.923807 333.246343 61.318514
" style="fill: none; stroke: #e69f00; stroke-linecap: round"/>
    <path d="M 329.875577 60.119373
L 333.246343 61.318514
L 330.264571 63.295642
z
" style="fill: #e69f00; stroke: #e69f00; stroke-linecap: round"/>
   </g>
   <g id="text_9">
    <text style="fill: #202124; font: 8.1px 'DejaVu Sans'" transform="translate(253.351744 146.108219)">execution weights</text>
    <text style="fill: #202124; font: 8.1px 'DejaVu Sans'" transform="translate(208.671384 155.178447)">W_K3(p, A*) using original K3 semantics</text>
   </g>
   <g id="patch_17">
    <path d="M 365.127184 79.14513
Q 341.362671 105.222382 318.351234 130.473269
" style="fill: none; stroke: #e69f00; stroke-linecap: round"/>
    <path d="M 321.689257 129.185791
L 318.351234 130.473269
L 319.324065 127.030364
z
" style="fill: #e69f00; stroke: #e69f00; stroke-linecap: round"/>
   </g>
   <g id="text_10">
    <text style="fill: #d55e00; font: 700 7.5px 'DejaVu Sans'; text-anchor: start" x="10.9152" y="160.3296" transform="rotate(-0 10.9152 160.3296)">S2_P50 registered hard per-swap bound: 0.0073038</text>
   </g>
   <g id="text_11">
    <g id="patch_18">
     <path d="M 10.9152 187.381806
L 406.309341 187.381806
Q 408.184341 187.381806 408.184341 185.506806
L 408.184341 178.248212
Q 408.184341 176.373212 406.309341 176.373212
L 10.9152 176.373212
Q 9.0402 176.373212 9.0402 178.248212
L 9.0402 185.506806
Q 9.0402 187.381806 10.9152 187.381806
z
" style="fill: #e8e8e8; stroke: #777777; stroke-width: 0.7; stroke-linejoin: miter"/>
    </g>
    <text style="fill: #d55e00; font: 7.5px 'DejaVu Sans'; text-anchor: start" x="10.9152" y="183.94704" transform="rotate(-0 10.9152 183.94704)">The bound limits selection-score regret; it does not guarantee semantic equivalence or quality neutrality.</text>
   </g>
  </g>
 </g>
 <defs>
  <clipPath id="pdc3da02770">
   <rect x="2.88" y="2.88" width="401.76" height="196.812"/>
  </clipPath>
 </defs>
</svg>
